<svg xmlns="http://www.w3.org/2000/svg" width="1000" height="962" viewBox="0 0 1000 962" version="1.1"><path d="M 214 117 L 214 192 237 192 L 260 192 260 332.500 L 260 473 237 473 L 214 473 214 548.500 L 214 624 435.750 623.988 L 657.500 623.975 706.250 575.318 L 755 526.661 755 332.920 L 755 139.179 705.824 90.589 L 656.647 42 435.324 42 L 214 42 214 117 M 269 117.500 L 269 138 292 138 L 315 138 315 333 L 315 528 292 528 L 269 528 269 549 L 269 570 451.332 570 L 633.665 570 666.832 537.409 L 700 504.819 700 333.368 L 700 161.916 667.250 129.499 L 634.500 97.081 451.750 97.041 L 269 97 269 117.500 M 405 333 L 405 520 486.259 520 L 567.517 520 588.759 498.741 L 610 477.483 610 332.448 L 610 187.413 588.582 166.706 L 567.164 146 486.082 146 L 405 146 405 333 M 776 357.531 L 776 537.395 765.229 548.447 C 759.305 554.526, 735.847 578.513, 713.100 601.750 L 671.743 644 509.621 644.145 C 420.455 644.225, 321.938 644.562, 290.697 644.895 L 233.893 645.500 249.792 655.250 L 265.690 665 473.254 665 L 680.817 665 697.658 647.613 C 706.921 638.050, 732.837 611.557, 755.250 588.740 L 796 547.254 796 385.766 L 796 224.277 786.392 201.389 C 781.107 188.800, 776.607 178.313, 776.392 178.083 C 776.176 177.854, 776 258.605, 776 357.531 M 460 333.500 L 460 466 468.496 466 L 476.992 466 477.246 341.750 L 477.500 217.500 505.303 217.234 L 533.106 216.968 538.540 221.734 C 543.681 226.243, 543.975 226.757, 543.987 231.250 L 544 236 521.496 236 L 498.992 236 499.246 350.750 L 499.500 465.500 521.949 465.770 L 544.397 466.039 549.699 460.804 L 555 455.568 555 332.997 L 555 210.425 550.216 205.712 L 545.431 201 502.716 201 L 460 201 460 333.500 M 217.550 210.850 C 218.072 211.318, 223.450 216.124, 229.500 221.531 C 235.550 226.937, 242.188 232.946, 244.250 234.883 L 248 238.406 248 224.203 L 248 210 232.300 210 C 223.595 210, 217.023 210.379, 217.550 210.850 M 719.585 733.034 C 678.307 739.562, 647.513 767.290, 637.835 806.644 C 636.138 813.546, 635.649 818.589, 635.621 829.500 C 635.584 843.791, 636.529 850.495, 640.205 862 C 650.366 893.809, 677.036 918.079, 710.644 926.101 C 718.797 928.047, 721.445 928.173, 744 927.689 C 769.345 927.145, 780.002 925.760, 792.841 921.339 L 798.181 919.500 798.059 894.103 C 797.992 880.135, 797.699 868.322, 797.409 867.853 C 797.119 867.384, 794.680 867, 791.989 867 C 786.350 867, 786.599 866.717, 774.643 886.691 C 768.334 897.230, 767.622 898.033, 762.418 900.495 C 749.325 906.690, 730.316 908.796, 717.542 905.469 C 696.863 900.083, 683.016 883.362, 677.307 856.883 C 675.890 850.309, 675.518 844.293, 675.584 829 C 675.660 811.310, 675.909 808.598, 678.270 799.776 C 681.696 786.970, 687.803 775.383, 694.914 768.195 C 705.032 757.967, 716.305 753.714, 733.195 753.752 C 744.513 753.778, 751.022 755.086, 760 759.140 L 766.500 762.075 775.482 777.537 L 784.463 793 790.081 793 L 795.699 793 796.416 767.399 C 796.809 753.319, 796.971 741.638, 796.775 741.442 C 795.987 740.654, 775.906 735.972, 767 734.500 C 755.508 732.601, 727.752 731.742, 719.585 733.034 M 887.500 733.036 C 862.296 736.973, 839.064 749.825, 824.842 767.699 C 801.275 797.316, 796.368 838.714, 812.410 872.579 C 818.370 885.159, 823.374 892.196, 832.621 901.002 C 846.020 913.759, 859.314 921.165, 876.759 925.591 C 885.256 927.746, 888.375 927.998, 906.378 927.982 C 930.798 927.959, 946.691 925.954, 962.766 920.868 L 966.033 919.834 965.766 893.667 L 965.500 867.500 960 867.212 L 954.500 866.924 945.500 882.051 C 936.701 896.841, 936.369 897.246, 930.644 900.158 C 913.422 908.917, 890.811 909.355, 874.260 901.251 C 863.289 895.879, 852.562 881.870, 847.651 866.500 C 843.020 852.008, 841.618 826.072, 844.503 808.281 C 848.281 784.987, 859.511 766.902, 875.150 758.923 C 889.239 751.736, 914.248 752.025, 929.091 759.546 C 934.533 762.304, 935.127 763.080, 944.950 780.250 L 952.245 793 958.122 793 L 964 793 964 777.656 C 964 769.216, 964.289 757.588, 964.642 751.815 L 965.284 741.318 954.776 738.685 C 948.996 737.237, 940.044 735.349, 934.883 734.491 C 923.503 732.598, 895.758 731.746, 887.500 733.036 M 214 744.281 L 214 752.562 226.500 755.921 L 239 759.280 239 830.112 L 239 900.944 233.750 902.439 C 230.863 903.261, 225.350 904.781, 221.500 905.816 L 214.500 907.700 214.210 915.850 L 213.919 924 250 924 L 286.081 924 285.790 915.852 L 285.500 907.703 275.500 904.570 L 265.500 901.437 265.294 841.969 L 265.089 782.500 267.878 790 C 269.412 794.125, 280.939 825.962, 293.493 860.750 L 316.320 924 325.016 924 L 333.712 924 359.314 856.250 C 373.395 818.987, 385.358 787.375, 385.899 786 C 386.557 784.327, 386.819 802.992, 386.691 842.434 L 386.500 901.369 375.750 904.716 L 365 908.064 365 916.032 L 365 924 407.500 924 L 450 924 450 916.028 L 450 908.056 444.750 906.561 C 441.863 905.739, 436.350 904.218, 432.500 903.181 L 425.500 901.295 425.243 830.274 L 424.987 759.253 436.349 756.127 C 442.598 754.407, 448.226 753, 448.856 753 C 449.625 753, 450 750.215, 450 744.500 L 450 736 418.122 736 C 393.802 736, 386.016 736.296, 385.280 737.250 C 384.573 738.165, 349.629 829.874, 332.835 874.889 C 332.345 876.202, 331.743 877.077, 331.498 876.831 C 331.252 876.586, 319.815 845.247, 306.083 807.189 C 292.350 769.131, 280.837 737.545, 280.498 736.997 C 280.109 736.367, 267.748 736, 246.941 736 L 214 736 214 744.281 M 526 736.803 C 526 737.244, 528.394 743.161, 531.320 749.951 L 536.639 762.296 507.880 831.287 C 492.063 869.233, 478.756 900.610, 478.310 901.015 C 477.865 901.420, 473.113 903.194, 467.750 904.958 L 458 908.165 458 916.082 L 458 924 495 924 L 532 924 532 916.047 L 532 908.094 528.308 907.075 C 526.278 906.514, 520.316 905.082, 515.058 903.892 C 509.801 902.702, 505.173 901.440, 504.774 901.088 C 504.374 900.736, 506.556 894.047, 509.621 886.224 L 515.195 872 549.423 872 L 583.651 872 589.808 886.123 C 593.195 893.891, 595.753 900.591, 595.492 901.012 C 595.232 901.434, 593.777 902.075, 592.259 902.438 C 590.742 902.801, 585.788 904.216, 581.250 905.581 L 573 908.064 573 916.032 L 573 924 615.040 924 L 657.081 924 656.790 915.858 L 656.500 907.717 646 904.397 L 635.500 901.077 603.549 826.789 C 585.976 785.930, 569.909 748.788, 567.845 744.250 L 564.092 736 545.046 736 C 534.571 736, 526 736.361, 526 736.803 M 24 744.886 L 24 752.772 36 756.041 L 48 759.310 48 830.407 L 48 901.505 36 904.876 L 24 908.247 24 916.192 L 24 924.138 78.250 923.715 C 123.666 923.361, 133.717 923.025, 139.971 921.654 C 179.877 912.905, 204.921 890.346, 214.616 854.416 C 217.246 844.667, 217.278 817.575, 214.670 807.500 C 211.889 796.752, 203.019 779.652, 195.773 771.070 C 181.380 754.022, 159.905 742.588, 134.558 738.477 C 127.446 737.324, 114.594 737.007, 74.750 737.004 L 24 737 24 744.886 M 86 830.500 L 86 905 95.750 905.222 C 120.534 905.786, 129.381 904.468, 142 898.333 C 151.886 893.527, 164.011 881.568, 169.205 871.500 C 176.320 857.709, 177.510 851.839, 177.419 831 C 177.350 815.265, 177.012 811.313, 175.161 804.558 C 168.313 779.578, 151.137 762.257, 128.500 757.504 C 123.882 756.535, 115.459 756.029, 103.750 756.017 L 86 756 86 830.500 M 535.455 819.822 L 523.432 850.500 536.216 850.779 C 543.247 850.932, 554.760 850.932, 561.800 850.779 L 574.601 850.500 561.374 820.157 C 554.100 803.469, 547.997 789.664, 547.813 789.480 C 547.629 789.295, 542.067 802.949, 535.455 819.822" stroke="none" fill="#0c4aab" fill-rule="evenodd"/><path d="M 0 481.001 L 0 962.002 500.250 961.751 L 1000.500 961.500 1000.751 480.750 L 1001.002 0 500.501 0 L 0 0 0 481.001 M 0.496 481.500 C 0.496 746.050, 0.610 854.126, 0.750 721.668 C 0.890 589.211, 0.890 372.761, 0.750 240.668 C 0.610 108.576, 0.496 216.950, 0.496 481.500 M 214 117 L 214 192 237 192 L 260 192 260 332.500 L 260 473 237 473 L 214 473 214 548.500 L 214 624 435.750 623.988 L 657.500 623.975 706.250 575.318 L 755 526.661 755 332.920 L 755 139.179 705.824 90.589 L 656.647 42 435.324 42 L 214 42 214 117 M 269 117.500 L 269 138 292 138 L 315 138 315 333 L 315 528 292 528 L 269 528 269 549 L 269 570 451.332 570 L 633.665 570 666.832 537.409 L 700 504.819 700 333.368 L 700 161.916 667.250 129.499 L 634.500 97.081 451.750 97.041 L 269 97 269 117.500 M 405 333 L 405 520 486.259 520 L 567.517 520 588.759 498.741 L 610 477.483 610 332.448 L 610 187.413 588.582 166.706 L 567.164 146 486.082 146 L 405 146 405 333 M 776 357.531 L 776 537.395 765.229 548.447 C 759.305 554.526, 735.847 578.513, 713.100 601.750 L 671.743 644 509.621 644.145 C 420.455 644.225, 321.938 644.562, 290.697 644.895 L 233.893 645.500 249.792 655.250 L 265.690 665 473.254 665 L 680.817 665 697.658 647.613 C 706.921 638.050, 732.837 611.557, 755.250 588.740 L 796 547.254 796 385.766 L 796 224.277 786.392 201.389 C 781.107 188.800, 776.607 178.313, 776.392 178.083 C 776.176 177.854, 776 258.605, 776 357.531 M 460 333.500 L 460 466 468.496 466 L 476.992 466 477.246 341.750 L 477.500 217.500 505.303 217.234 L 533.106 216.968 538.540 221.734 C 543.681 226.243, 543.975 226.757, 543.987 231.250 L 544 236 521.496 236 L 498.992 236 499.246 350.750 L 499.500 465.500 521.949 465.770 L 544.397 466.039 549.699 460.804 L 555 455.568 555 332.997 L 555 210.425 550.216 205.712 L 545.431 201 502.716 201 L 460 201 460 333.500 M 217.550 210.850 C 218.072 211.318, 223.450 216.124, 229.500 221.531 C 235.550 226.937, 242.188 232.946, 244.250 234.883 L 248 238.406 248 224.203 L 248 210 232.300 210 C 223.595 210, 217.023 210.379, 217.550 210.850 M 719.585 733.034 C 678.307 739.562, 647.513 767.290, 637.835 806.644 C 636.138 813.546, 635.649 818.589, 635.621 829.500 C 635.584 843.791, 636.529 850.495, 640.205 862 C 650.366 893.809, 677.036 918.079, 710.644 926.101 C 718.797 928.047, 721.445 928.173, 744 927.689 C 769.345 927.145, 780.002 925.760, 792.841 921.339 L 798.181 919.500 798.059 894.103 C 797.992 880.135, 797.699 868.322, 797.409 867.853 C 797.119 867.384, 794.680 867, 791.989 867 C 786.350 867, 786.599 866.717, 774.643 886.691 C 768.334 897.230, 767.622 898.033, 762.418 900.495 C 749.325 906.690, 730.316 908.796, 717.542 905.469 C 696.863 900.083, 683.016 883.362, 677.307 856.883 C 675.890 850.309, 675.518 844.293, 675.584 829 C 675.660 811.310, 675.909 808.598, 678.270 799.776 C 681.696 786.970, 687.803 775.383, 694.914 768.195 C 705.032 757.967, 716.305 753.714, 733.195 753.752 C 744.513 753.778, 751.022 755.086, 760 759.140 L 766.500 762.075 775.482 777.537 L 784.463 793 790.081 793 L 795.699 793 796.416 767.399 C 796.809 753.319, 796.971 741.638, 796.775 741.442 C 795.987 740.654, 775.906 735.972, 767 734.500 C 755.508 732.601, 727.752 731.742, 719.585 733.034 M 887.500 733.036 C 862.296 736.973, 839.064 749.825, 824.842 767.699 C 801.275 797.316, 796.368 838.714, 812.410 872.579 C 818.370 885.159, 823.374 892.196, 832.621 901.002 C 846.020 913.759, 859.314 921.165, 876.759 925.591 C 885.256 927.746, 888.375 927.998, 906.378 927.982 C 930.798 927.959, 946.691 925.954, 962.766 920.868 L 966.033 919.834 965.766 893.667 L 965.500 867.500 960 867.212 L 954.500 866.924 945.500 882.051 C 936.701 896.841, 936.369 897.246, 930.644 900.158 C 913.422 908.917, 890.811 909.355, 874.260 901.251 C 863.289 895.879, 852.562 881.870, 847.651 866.500 C 843.020 852.008, 841.618 826.072, 844.503 808.281 C 848.281 784.987, 859.511 766.902, 875.150 758.923 C 889.239 751.736, 914.248 752.025, 929.091 759.546 C 934.533 762.304, 935.127 763.080, 944.950 780.250 L 952.245 793 958.122 793 L 964 793 964 777.656 C 964 769.216, 964.289 757.588, 964.642 751.815 L 965.284 741.318 954.776 738.685 C 948.996 737.237, 940.044 735.349, 934.883 734.491 C 923.503 732.598, 895.758 731.746, 887.500 733.036 M 214 744.281 L 214 752.562 226.500 755.921 L 239 759.280 239 830.112 L 239 900.944 233.750 902.439 C 230.863 903.261, 225.350 904.781, 221.500 905.816 L 214.500 907.700 214.210 915.850 L 213.919 924 250 924 L 286.081 924 285.790 915.852 L 285.500 907.703 275.500 904.570 L 265.500 901.437 265.294 841.969 L 265.089 782.500 267.878 790 C 269.412 794.125, 280.939 825.962, 293.493 860.750 L 316.320 924 325.016 924 L 333.712 924 359.314 856.250 C 373.395 818.987, 385.358 787.375, 385.899 786 C 386.557 784.327, 386.819 802.992, 386.691 842.434 L 386.500 901.369 375.750 904.716 L 365 908.064 365 916.032 L 365 924 407.500 924 L 450 924 450 916.028 L 450 908.056 444.750 906.561 C 441.863 905.739, 436.350 904.218, 432.500 903.181 L 425.500 901.295 425.243 830.274 L 424.987 759.253 436.349 756.127 C 442.598 754.407, 448.226 753, 448.856 753 C 449.625 753, 450 750.215, 450 744.500 L 450 736 418.122 736 C 393.802 736, 386.016 736.296, 385.280 737.250 C 384.573 738.165, 349.629 829.874, 332.835 874.889 C 332.345 876.202, 331.743 877.077, 331.498 876.831 C 331.252 876.586, 319.815 845.247, 306.083 807.189 C 292.350 769.131, 280.837 737.545, 280.498 736.997 C 280.109 736.367, 267.748 736, 246.941 736 L 214 736 214 744.281 M 526 736.803 C 526 737.244, 528.394 743.161, 531.320 749.951 L 536.639 762.296 507.880 831.287 C 492.063 869.233, 478.756 900.610, 478.310 901.015 C 477.865 901.420, 473.113 903.194, 467.750 904.958 L 458 908.165 458 916.082 L 458 924 495 924 L 532 924 532 916.047 L 532 908.094 528.308 907.075 C 526.278 906.514, 520.316 905.082, 515.058 903.892 C 509.801 902.702, 505.173 901.440, 504.774 901.088 C 504.374 900.736, 506.556 894.047, 509.621 886.224 L 515.195 872 549.423 872 L 583.651 872 589.808 886.123 C 593.195 893.891, 595.753 900.591, 595.492 901.012 C 595.232 901.434, 593.777 902.075, 592.259 902.438 C 590.742 902.801, 585.788 904.216, 581.250 905.581 L 573 908.064 573 916.032 L 573 924 615.040 924 L 657.081 924 656.790 915.858 L 656.500 907.717 646 904.397 L 635.500 901.077 603.549 826.789 C 585.976 785.930, 569.909 748.788, 567.845 744.250 L 564.092 736 545.046 736 C 534.571 736, 526 736.361, 526 736.803 M 24 744.886 L 24 752.772 36 756.041 L 48 759.310 48 830.407 L 48 901.505 36 904.876 L 24 908.247 24 916.192 L 24 924.138 78.250 923.715 C 123.666 923.361, 133.717 923.025, 139.971 921.654 C 179.877 912.905, 204.921 890.346, 214.616 854.416 C 217.246 844.667, 217.278 817.575, 214.670 807.500 C 211.889 796.752, 203.019 779.652, 195.773 771.070 C 181.380 754.022, 159.905 742.588, 134.558 738.477 C 127.446 737.324, 114.594 737.007, 74.750 737.004 L 24 737 24 744.886 M 86 830.500 L 86 905 95.750 905.222 C 120.534 905.786, 129.381 904.468, 142 898.333 C 151.886 893.527, 164.011 881.568, 169.205 871.500 C 176.320 857.709, 177.510 851.839, 177.419 831 C 177.350 815.265, 177.012 811.313, 175.161 804.558 C 168.313 779.578, 151.137 762.257, 128.500 757.504 C 123.882 756.535, 115.459 756.029, 103.750 756.017 L 86 756 86 830.500 M 535.455 819.822 L 523.432 850.500 536.216 850.779 C 543.247 850.932, 554.760 850.932, 561.800 850.779 L 574.601 850.500 561.374 820.157 C 554.100 803.469, 547.997 789.664, 547.813 789.480 C 547.629 789.295, 542.067 802.949, 535.455 819.822" stroke="none" fill="#fbfbfb" fill-rule="evenodd"/></svg>