<svg xmlns="http://www.w3.org/2000/svg" width="500" height="500" viewBox="0 0 500 500" version="1.1"><path d="M 184 139.036 C 133.860 139.447, 117.562 139.881, 114.500 140.885 C 99.404 145.835, 88.063 156.001, 80.392 171.462 C 76.578 179.148, 74.502 186.116, 66.514 218.040 C 56.083 259.730, 55.018 266.725, 57.396 277.943 C 60.111 290.756, 67.266 299.127, 79.855 304.218 C 85.492 306.497, 85.590 306.500, 147.211 306.786 L 208.923 307.072 209.452 310.286 C 209.743 312.054, 211.130 323.850, 212.535 336.500 C 213.939 349.150, 215.279 360.063, 215.513 360.750 C 215.843 361.722, 224.907 362, 256.323 362 L 296.708 362 332.042 306.250 C 351.476 275.587, 370.961 245.169, 375.341 238.653 C 383.756 226.136, 387.692 222.235, 410.810 203.500 C 416.917 198.550, 421.934 194.162, 421.957 193.750 C 421.981 193.338, 400.850 193, 375 193 L 328 193 328 202.532 C 328 208.781, 327.479 213.312, 326.486 215.687 C 324.547 220.329, 292.627 270.409, 292.302 269.319 C 292.168 268.869, 290.912 258.342, 289.511 245.927 C 286.599 220.120, 286.309 222.318, 294.872 205.255 C 297.692 199.635, 300 194.578, 300 194.018 C 300 193.352, 290.655 193, 273 193 L 246 193 246.036 190.750 C 246.055 189.512, 247.139 177.475, 248.444 164 C 249.749 150.525, 250.521 139.275, 250.159 139 C 249.796 138.725, 220.025 138.741, 184 139.036 M 119.773 146.555 C 103.977 150.384, 91.917 161.168, 85.031 177.620 C 83.391 181.536, 77.941 201.111, 72.918 221.120 C 65.017 252.596, 63.770 258.713, 63.666 266.500 C 63.580 272.916, 64.077 277.045, 65.397 280.882 C 67.919 288.213, 74.671 295.014, 82.500 298.111 L 88.500 300.484 157.750 300.768 C 195.838 300.925, 227 300.878, 227 300.664 C 227 300.450, 225.650 297.001, 224 293 C 222.112 288.421, 221 283.968, 221 280.985 C 221 274.286, 232.542 228.447, 235.475 223.500 C 236.779 221.300, 241.728 215.112, 246.472 209.750 L 255.099 200 202.549 200 C 173.647 200, 150 199.692, 150 199.316 C 150 198.939, 150.734 196.014, 151.632 192.816 L 153.264 187 187.169 187 L 221.075 187 230.186 190.518 C 235.197 192.454, 239.410 193.916, 239.550 193.768 C 239.841 193.460, 244.019 149.393, 244.008 146.750 C 244 145.102, 240.541 145.005, 184.750 145.083 C 137.844 145.149, 124.307 145.456, 119.773 146.555 M 126.638 155.100 C 110.250 157.493, 98.330 168.754, 92.422 187.422 C 91.016 191.865, 86.449 209.225, 82.272 226 C 73.277 262.133, 72.145 272.165, 76.183 279.992 C 78.698 284.868, 83.191 288.403, 88.882 289.984 C 90.948 290.558, 105.895 290.991, 123.730 290.994 C 159.324 291.001, 160.746 290.754, 166.107 283.645 L 169.232 279.500 168.607 285.250 L 167.983 291 190.939 291 L 213.896 291 212.816 287.902 C 211.178 283.204, 212.353 275.809, 218.960 249.223 C 224.884 225.387, 227.325 218.779, 232.620 212.250 L 235.256 209 190.320 209 L 145.383 209 141.741 222.216 C 139.737 229.484, 138.215 235.549, 138.359 235.692 C 138.502 235.835, 140.960 235.063, 143.820 233.976 C 147.855 232.443, 151.487 232, 160.011 232 C 166.055 232, 170.989 232.113, 170.976 232.250 C 170.963 232.387, 169.186 239.475, 167.029 248 C 162.606 265.475, 161.356 267.374, 153.504 268.552 C 146.466 269.607, 129.492 268.653, 127.617 267.097 C 126.728 266.359, 126 264.451, 126 262.858 C 126 259.499, 144.567 184.678, 146.121 181.774 C 148.449 177.423, 152.034 176.996, 185.718 177.060 C 214.857 177.114, 220.604 177.431, 229.548 179.473 L 232.596 180.169 233.696 167.835 C 234.302 161.051, 234.591 155.162, 234.340 154.750 C 233.708 153.715, 133.897 154.040, 126.638 155.100 M 258.680 204.533 L 254.860 209 264.930 209 C 270.469 209, 275 209.170, 275 209.378 C 275 209.586, 274.325 211.371, 273.500 213.346 C 271.286 218.646, 271.628 228.770, 275.019 258.252 C 276.680 272.688, 278.769 291.250, 279.662 299.500 C 280.555 307.750, 281.559 314.793, 281.893 315.152 C 282.227 315.510, 292.400 300.267, 304.500 281.278 C 338.599 227.764, 340.943 223.768, 342.836 215.918 L 344.500 209.014 361.902 209.007 L 379.304 209 373.835 214.750 C 367.032 221.901, 363.444 227.266, 326.517 285.500 C 310.126 311.350, 294.762 335.538, 292.377 339.250 L 288.040 346 259.088 346 C 232.370 346, 230.096 345.865, 229.637 344.250 C 229.363 343.288, 228.414 335.525, 227.529 327 C 225.302 305.552, 225.812 307, 220.481 307 C 217.063 307, 216 307.375, 216 308.580 C 216 313.073, 221.223 354.610, 221.870 355.263 C 222.286 355.683, 238.548 355.908, 258.008 355.763 L 293.389 355.500 305.445 336.416 C 344.783 274.143, 369.175 236.028, 374 229.291 C 377.025 225.067, 382.664 218.887, 386.532 215.556 C 390.400 212.225, 396.025 207.382, 399.032 204.794 L 404.500 200.088 369.250 200.044 L 334 200 334 207.380 C 334 213.724, 333.544 215.658, 330.750 221.169 C 327.482 227.614, 288.735 289.008, 288.229 288.541 C 287.714 288.066, 281.943 237.459, 281.383 228.500 L 280.820 219.500 285.410 210.182 C 287.934 205.057, 290 200.669, 290 200.432 C 290 200.194, 283.813 200.015, 276.250 200.033 L 262.500 200.066 258.680 204.533 M 144.053 243.588 C 141.057 244.948, 138.504 246.163, 138.379 246.288 C 138.254 246.412, 137.503 249.324, 136.710 252.757 L 135.268 259 144.554 259 L 153.840 259 155.411 252.250 C 156.276 248.537, 157.264 244.488, 157.608 243.250 C 158.189 241.159, 157.924 241.004, 153.867 241.058 C 151.465 241.089, 147.049 242.228, 144.053 243.588 M 145.750 249.620 C 142.367 251.396, 142.193 253, 145.383 253 C 147 253, 147.952 252.290, 148.344 250.794 C 149.089 247.945, 149.009 247.909, 145.750 249.620" stroke="none" fill="#c31e34" fill-rule="evenodd"/><path d="M 0 250.002 L 0 500.004 250.250 499.752 L 500.500 499.500 500.752 249.750 L 501.004 0 250.502 0 L 0 0 0 250.002 M 0.492 250.500 C 0.492 388, 0.608 444.101, 0.750 375.170 C 0.892 306.238, 0.892 193.738, 0.750 125.170 C 0.608 56.601, 0.492 113, 0.492 250.500 M 184 139.036 C 133.860 139.447, 117.562 139.881, 114.500 140.885 C 99.404 145.835, 88.063 156.001, 80.392 171.462 C 76.578 179.148, 74.502 186.116, 66.514 218.040 C 56.083 259.730, 55.018 266.725, 57.396 277.943 C 60.111 290.756, 67.266 299.127, 79.855 304.218 C 85.492 306.497, 85.590 306.500, 147.211 306.786 L 208.923 307.072 209.452 310.286 C 209.743 312.054, 211.130 323.850, 212.535 336.500 C 213.939 349.150, 215.279 360.063, 215.513 360.750 C 215.843 361.722, 224.907 362, 256.323 362 L 296.708 362 332.042 306.250 C 351.476 275.587, 370.961 245.169, 375.341 238.653 C 383.756 226.136, 387.692 222.235, 410.810 203.500 C 416.917 198.550, 421.934 194.162, 421.957 193.750 C 421.981 193.338, 400.850 193, 375 193 L 328 193 328 202.532 C 328 208.781, 327.479 213.312, 326.486 215.687 C 324.547 220.329, 292.627 270.409, 292.302 269.319 C 292.168 268.869, 290.912 258.342, 289.511 245.927 C 286.599 220.120, 286.309 222.318, 294.872 205.255 C 297.692 199.635, 300 194.578, 300 194.018 C 300 193.352, 290.655 193, 273 193 L 246 193 246.036 190.750 C 246.055 189.512, 247.139 177.475, 248.444 164 C 249.749 150.525, 250.521 139.275, 250.159 139 C 249.796 138.725, 220.025 138.741, 184 139.036 M 119.773 146.555 C 103.977 150.384, 91.917 161.168, 85.031 177.620 C 83.391 181.536, 77.941 201.111, 72.918 221.120 C 65.017 252.596, 63.770 258.713, 63.666 266.500 C 63.580 272.916, 64.077 277.045, 65.397 280.882 C 67.919 288.213, 74.671 295.014, 82.500 298.111 L 88.500 300.484 157.750 300.768 C 195.838 300.925, 227 300.878, 227 300.664 C 227 300.450, 225.650 297.001, 224 293 C 222.112 288.421, 221 283.968, 221 280.985 C 221 274.286, 232.542 228.447, 235.475 223.500 C 236.779 221.300, 241.728 215.112, 246.472 209.750 L 255.099 200 202.549 200 C 173.647 200, 150 199.692, 150 199.316 C 150 198.939, 150.734 196.014, 151.632 192.816 L 153.264 187 187.169 187 L 221.075 187 230.186 190.518 C 235.197 192.454, 239.410 193.916, 239.550 193.768 C 239.841 193.460, 244.019 149.393, 244.008 146.750 C 244 145.102, 240.541 145.005, 184.750 145.083 C 137.844 145.149, 124.307 145.456, 119.773 146.555 M 126.638 155.100 C 110.250 157.493, 98.330 168.754, 92.422 187.422 C 91.016 191.865, 86.449 209.225, 82.272 226 C 73.277 262.133, 72.145 272.165, 76.183 279.992 C 78.698 284.868, 83.191 288.403, 88.882 289.984 C 90.948 290.558, 105.895 290.991, 123.730 290.994 C 159.324 291.001, 160.746 290.754, 166.107 283.645 L 169.232 279.500 168.607 285.250 L 167.983 291 190.939 291 L 213.896 291 212.816 287.902 C 211.178 283.204, 212.353 275.809, 218.960 249.223 C 224.884 225.387, 227.325 218.779, 232.620 212.250 L 235.256 209 190.320 209 L 145.383 209 141.741 222.216 C 139.737 229.484, 138.215 235.549, 138.359 235.692 C 138.502 235.835, 140.960 235.063, 143.820 233.976 C 147.855 232.443, 151.487 232, 160.011 232 C 166.055 232, 170.989 232.113, 170.976 232.250 C 170.963 232.387, 169.186 239.475, 167.029 248 C 162.606 265.475, 161.356 267.374, 153.504 268.552 C 146.466 269.607, 129.492 268.653, 127.617 267.097 C 126.728 266.359, 126 264.451, 126 262.858 C 126 259.499, 144.567 184.678, 146.121 181.774 C 148.449 177.423, 152.034 176.996, 185.718 177.060 C 214.857 177.114, 220.604 177.431, 229.548 179.473 L 232.596 180.169 233.696 167.835 C 234.302 161.051, 234.591 155.162, 234.340 154.750 C 233.708 153.715, 133.897 154.040, 126.638 155.100 M 258.680 204.533 L 254.860 209 264.930 209 C 270.469 209, 275 209.170, 275 209.378 C 275 209.586, 274.325 211.371, 273.500 213.346 C 271.286 218.646, 271.628 228.770, 275.019 258.252 C 276.680 272.688, 278.769 291.250, 279.662 299.500 C 280.555 307.750, 281.559 314.793, 281.893 315.152 C 282.227 315.510, 292.400 300.267, 304.500 281.278 C 338.599 227.764, 340.943 223.768, 342.836 215.918 L 344.500 209.014 361.902 209.007 L 379.304 209 373.835 214.750 C 367.032 221.901, 363.444 227.266, 326.517 285.500 C 310.126 311.350, 294.762 335.538, 292.377 339.250 L 288.040 346 259.088 346 C 232.370 346, 230.096 345.865, 229.637 344.250 C 229.363 343.288, 228.414 335.525, 227.529 327 C 225.302 305.552, 225.812 307, 220.481 307 C 217.063 307, 216 307.375, 216 308.580 C 216 313.073, 221.223 354.610, 221.870 355.263 C 222.286 355.683, 238.548 355.908, 258.008 355.763 L 293.389 355.500 305.445 336.416 C 344.783 274.143, 369.175 236.028, 374 229.291 C 377.025 225.067, 382.664 218.887, 386.532 215.556 C 390.400 212.225, 396.025 207.382, 399.032 204.794 L 404.500 200.088 369.250 200.044 L 334 200 334 207.380 C 334 213.724, 333.544 215.658, 330.750 221.169 C 327.482 227.614, 288.735 289.008, 288.229 288.541 C 287.714 288.066, 281.943 237.459, 281.383 228.500 L 280.820 219.500 285.410 210.182 C 287.934 205.057, 290 200.669, 290 200.432 C 290 200.194, 283.813 200.015, 276.250 200.033 L 262.500 200.066 258.680 204.533 M 144.053 243.588 C 141.057 244.948, 138.504 246.163, 138.379 246.288 C 138.254 246.412, 137.503 249.324, 136.710 252.757 L 135.268 259 144.554 259 L 153.840 259 155.411 252.250 C 156.276 248.537, 157.264 244.488, 157.608 243.250 C 158.189 241.159, 157.924 241.004, 153.867 241.058 C 151.465 241.089, 147.049 242.228, 144.053 243.588 M 145.750 249.620 C 142.367 251.396, 142.193 253, 145.383 253 C 147 253, 147.952 252.290, 148.344 250.794 C 149.089 247.945, 149.009 247.909, 145.750 249.620" stroke="none" fill="#f6f6f6" fill-rule="evenodd"/></svg>